<svg xmlns="http://www.w3.org/2000/svg" viewBox="0 0 640 420">
  <rect width="640" height="420" rx="28" fill="#fff5f8"/>
  <rect x="34" y="34" width="572" height="352" rx="24" fill="#ffffff" stroke="#f4d7e6" stroke-width="2"/>
  <rect x="62" y="62" width="516" height="44" rx="14" fill="#ffe9f1"/>
  <rect x="84" y="74" width="90" height="20" rx="10" fill="#ff8db5"/>
  <rect x="488" y="74" width="72" height="18" rx="9" fill="#6c8fe1"/>
  <rect x="84" y="136" width="472" height="74" rx="18" fill="#f8fbff" stroke="#dfeaf6" stroke-width="2"/>
  <rect x="112" y="160" width="220" height="16" rx="8" fill="#ff7aa2"/>
  <rect x="112" y="186" width="252" height="12" rx="6" fill="#dce9f8"/>
  <rect x="84" y="236" width="214" height="116" rx="16" fill="#fff4f8" stroke="#f6dce8" stroke-width="2"/>
  <rect x="332" y="236" width="224" height="116" rx="16" fill="#f7fbff" stroke="#dfeaf6" stroke-width="2"/>
  <rect x="112" y="266" width="140" height="14" rx="7" fill="#6c8fe1"/>
  <rect x="112" y="292" width="166" height="10" rx="5" fill="#ffd4e4"/>
  <rect x="360" y="264" width="124" height="14" rx="7" fill="#ff8db5"/>
  <rect x="360" y="292" width="150" height="10" rx="5" fill="#c7d8f7"/>
</svg>