<svg xmlns="http://www.w3.org/2000/svg" viewBox="0 0 640 420">
  <rect width="640" height="420" rx="28" fill="#fff5f8"/>
  <rect x="34" y="34" width="572" height="352" rx="24" fill="#ffffff" stroke="#f4d7e6" stroke-width="2"/>
  <rect x="64" y="64" width="180" height="28" rx="14" fill="#ff8db5"/>
  <rect x="268" y="64" width="164" height="28" rx="14" fill="#f4d9e6"/>
  <rect x="446" y="64" width="120" height="28" rx="14" fill="#6c8fe1"/>
  <rect x="64" y="122" width="512" height="118" rx="18" fill="#f8fbff" stroke="#dfeaf6" stroke-width="2"/>
  <rect x="92" y="150" width="216" height="16" rx="8" fill="#ff7aa2"/>
  <rect x="92" y="178" width="280" height="12" rx="6" fill="#dce9f8"/>
  <rect x="430" y="148" width="96" height="56" rx="16" fill="#ffe6ef"/>
  <rect x="64" y="270" width="154" height="88" rx="16" fill="#fff4f8" stroke="#f6dce8" stroke-width="2"/>
  <rect x="242" y="270" width="154" height="88" rx="16" fill="#f7fbff" stroke="#dfeaf6" stroke-width="2"/>
  <rect x="420" y="270" width="156" height="88" rx="16" fill="#fff4f8" stroke="#f6dce8" stroke-width="2"/>
  <rect x="92" y="296" width="88" height="14" rx="7" fill="#6c8fe1"/>
  <rect x="270" y="296" width="104" height="14" rx="7" fill="#ff8db5"/>
  <rect x="448" y="296" width="90" height="14" rx="7" fill="#6c8fe1"/>
</svg>